<svg width="520" height="381" viewBox="0 0 520 381" fill="none" xmlns="http://www.w3.org/2000/svg">
<rect x="169" y="104" width="13" height="47" fill="#528C42"/>
<rect x="182" y="151" width="13" height="24" fill="#528C42"/>
<rect x="195" y="173" width="12" height="12" fill="#528C42"/>
<rect x="207" y="185" width="12" height="12" fill="#528C42"/>
<rect x="219" y="197" width="23" height="14" fill="#528C42"/>
<rect x="290" y="197" width="24" height="14" fill="#528C42"/>
<rect x="313" y="185" width="13" height="13" fill="#528C42"/>
<rect x="182" y="78" width="13" height="26" fill="#528C42"/>
<rect x="195" y="66" width="12" height="12" fill="#528C42"/>
<rect x="207" y="57" width="12" height="12" fill="#528C42"/>
<rect x="219" y="44" width="23" height="13" fill="#528C42"/>
<rect x="242" y="31" width="37" height="13" fill="#528C42"/>
<rect x="301" y="44" width="13" height="13" fill="#528C42"/>
<rect x="313" y="57" width="13" height="12" fill="#528C42"/>
<rect x="326" y="66" width="12" height="12" fill="#528C42"/>
<rect x="338" y="78" width="13" height="26" fill="#528C42"/>
<rect x="351" y="104" width="12" height="47" fill="#528C42"/>
<rect x="338" y="151" width="13" height="24" fill="#528C42"/>
<rect x="326" y="175" width="12" height="11" fill="#528C42"/>
<rect x="283" y="25" width="14" height="14" fill="#528C42"/>
<rect x="330" width="14" height="14" fill="#528C42"/>
<rect x="242" y="44" width="25" height="13" fill="#83B862"/>
<rect x="219" y="57" width="23" height="12" fill="#83B862"/>
<rect x="207" y="69" width="12" height="9" fill="#83B862"/>
<rect x="195" y="78" width="12" height="26" fill="#83B862"/>
<rect x="182" y="104" width="13" height="47" fill="#83B862"/>
<rect x="195" y="151" width="12" height="22" fill="#83B862"/>
<rect x="207" y="173" width="12" height="12" fill="#83B862"/>
<rect x="219" y="162" width="12" height="11" fill="#83B862"/>
<rect x="231" y="173" width="11" height="12" fill="#83B862"/>
<rect x="219" y="185" width="12" height="13" fill="#83B862"/>
<rect x="242" y="185" width="13" height="13" fill="#83B862"/>
<rect x="242" y="198" width="48" height="13" fill="#83B862"/>
<rect x="255" y="173" width="11" height="13" fill="#83B862"/>
<rect x="266" y="186" width="13" height="12" fill="#83B862"/>
<rect x="266" y="162" width="13" height="11" fill="#83B862"/>
<rect x="279" y="173" width="11" height="13" fill="#83B862"/>
<rect x="290" y="162" width="12" height="11" fill="#83B862"/>
<rect x="302" y="175" width="24" height="11" fill="#83B862"/>
<rect x="290" y="186" width="24" height="11" fill="#83B862"/>
<rect x="313" y="151" width="13" height="12" fill="#83B862"/>
<rect x="326" y="163" width="12" height="12" fill="#83B862"/>
<rect x="326" y="138" width="25" height="13" fill="#83B862"/>
<rect x="338" y="104" width="13" height="34" fill="#83B862"/>
<rect x="326" y="78" width="12" height="13" fill="#83B862"/>
<rect x="313" y="69" width="13" height="12" fill="#83B862"/>
<rect x="290" y="57" width="11" height="12" fill="#83B862"/>
<rect x="279" y="44" width="13" height="13" fill="#83B862"/>
<rect x="302" y="7" width="16" height="16" fill="#83B862"/>
<rect x="351" y="3" width="13" height="13" fill="#83B862"/>
<rect x="195" y="104" width="131" height="47" fill="#A5C567"/>
<rect x="207" y="78" width="119" height="26" fill="#A5C567"/>
<rect x="326" y="91" width="12" height="47" fill="#A5C567"/>
<rect x="326" y="151" width="12" height="12" fill="#A5C567"/>
<rect x="302" y="162" width="24" height="13" fill="#A5C567"/>
<rect x="290" y="173" width="12" height="13" fill="#A5C567"/>
<path d="M279 186H290V198H279V186Z" fill="#A5C567"/>
<path d="M266 173H279V186H266V173Z" fill="#A5C567"/>
<path d="M249 157.5H260V169.5H249V157.5Z" fill="#A5C567"/>
<rect x="255" y="186" width="11" height="12" fill="#A5C567"/>
<rect x="231" y="185" width="11" height="13" fill="#A5C567"/>
<rect x="219" y="173" width="12" height="13" fill="#A5C567"/>
<rect x="242" y="173" width="13" height="12" fill="#A5C567"/>
<rect x="207" y="151" width="106" height="11" fill="#A5C567"/>
<rect x="207" y="162" width="12" height="11" fill="#A5C567"/>
<rect x="231" y="162" width="35" height="11" fill="#A5C567"/>
<rect x="279" y="162" width="11" height="11" fill="#A5C567"/>
<rect x="219" y="69" width="94" height="9" fill="#A5C567"/>
<rect x="242" y="57" width="37" height="12" fill="#A5C567"/>
<rect x="330" y="25" width="15" height="15" fill="#A5C567"/>
<rect x="242" y="211" width="11" height="60" fill="#83471D"/>
<rect x="228" y="258" width="14" height="13" fill="#83471D"/>
<rect x="280" y="211" width="10" height="60" fill="#83471D"/>
<rect x="290" y="258" width="11" height="13" fill="#83471D"/>
<rect x="253" y="211" width="27" height="60" fill="#C7743E"/>
<rect x="267" y="211" width="13" height="47" fill="#9F5E2F"/>
<rect x="253" y="258" width="14" height="13" fill="#9F5E2F"/>
<path d="M6.34766 357V285.906H28.2227C34.4727 285.906 40.0553 287.322 44.9707 290.154C49.9186 292.954 53.776 296.958 56.543 302.166C59.3099 307.342 60.6934 313.234 60.6934 319.842V323.113C60.6934 329.721 59.3262 335.597 56.5918 340.74C53.89 345.883 50.0651 349.871 45.1172 352.703C40.1693 355.535 34.5866 356.967 28.3691 357H6.34766ZM20.9961 297.771V345.232H28.0762C33.8053 345.232 38.1836 343.361 41.2109 339.617C44.2383 335.874 45.7845 330.519 45.8496 323.553V319.793C45.8496 312.566 44.3522 307.098 41.3574 303.387C38.3626 299.643 33.9844 297.771 28.2227 297.771H20.9961ZM100.146 317.4C98.2259 317.14 96.5332 317.01 95.0684 317.01C89.7298 317.01 86.2305 318.816 84.5703 322.43V357H70.459V304.168H83.7891L84.1797 310.467C87.0117 305.617 90.9342 303.191 95.9473 303.191C97.5098 303.191 98.9746 303.403 100.342 303.826L100.146 317.4ZM130.322 357.977C122.575 357.977 116.26 355.6 111.377 350.848C106.527 346.095 104.102 339.764 104.102 331.854V330.486C104.102 325.18 105.127 320.444 107.178 316.277C109.229 312.078 112.126 308.855 115.869 306.609C119.645 304.331 123.942 303.191 128.76 303.191C135.986 303.191 141.667 305.47 145.801 310.027C149.967 314.585 152.051 321.046 152.051 329.412V335.174H118.408C118.864 338.624 120.231 341.391 122.51 343.475C124.821 345.558 127.734 346.6 131.25 346.6C136.686 346.6 140.934 344.63 143.994 340.691L150.928 348.455C148.812 351.45 145.947 353.794 142.334 355.486C138.721 357.146 134.717 357.977 130.322 357.977ZM128.711 314.617C125.911 314.617 123.633 315.561 121.875 317.449C120.15 319.337 119.043 322.039 118.555 325.555H138.184V324.432C138.118 321.307 137.272 318.898 135.645 317.205C134.017 315.48 131.706 314.617 128.711 314.617ZM190.723 357C190.072 355.73 189.6 354.152 189.307 352.264C185.889 356.072 181.445 357.977 175.977 357.977C170.801 357.977 166.504 356.479 163.086 353.484C159.701 350.49 158.008 346.714 158.008 342.156C158.008 336.557 160.075 332.26 164.209 329.266C168.376 326.271 174.382 324.757 182.227 324.725H188.721V321.697C188.721 319.256 188.086 317.303 186.816 315.838C185.579 314.373 183.61 313.641 180.908 313.641C178.532 313.641 176.66 314.21 175.293 315.35C173.958 316.489 173.291 318.051 173.291 320.037H159.18C159.18 316.977 160.124 314.145 162.012 311.541C163.9 308.937 166.569 306.902 170.02 305.438C173.47 303.94 177.344 303.191 181.641 303.191C188.151 303.191 193.311 304.835 197.119 308.123C200.96 311.378 202.881 315.968 202.881 321.893V344.793C202.913 349.806 203.613 353.598 204.98 356.17V357H190.723ZM179.053 347.186C181.136 347.186 183.057 346.73 184.814 345.818C186.572 344.874 187.874 343.621 188.721 342.059V332.977H183.447C176.383 332.977 172.624 335.418 172.168 340.301L172.119 341.131C172.119 342.889 172.738 344.337 173.975 345.477C175.212 346.616 176.904 347.186 179.053 347.186ZM226.953 304.168L227.393 310.076C231.136 305.486 236.198 303.191 242.578 303.191C249.382 303.191 254.053 305.877 256.592 311.248C260.303 305.877 265.592 303.191 272.461 303.191C278.19 303.191 282.454 304.868 285.254 308.221C288.053 311.541 289.453 316.554 289.453 323.26V357H275.293V323.309C275.293 320.314 274.707 318.133 273.535 316.766C272.363 315.366 270.296 314.666 267.334 314.666C263.102 314.666 260.173 316.684 258.545 320.721L258.594 357H244.482V323.357C244.482 320.298 243.88 318.084 242.676 316.717C241.471 315.35 239.421 314.666 236.523 314.666C232.52 314.666 229.622 316.326 227.832 319.646V357H213.721V304.168H226.953ZM376.758 297.771H354.98V357H340.332V297.771H318.848V285.906H376.758V297.771ZM410.693 317.4C408.773 317.14 407.08 317.01 405.615 317.01C400.277 317.01 396.777 318.816 395.117 322.43V357H381.006V304.168H394.336L394.727 310.467C397.559 305.617 401.481 303.191 406.494 303.191C408.057 303.191 409.521 303.403 410.889 303.826L410.693 317.4ZM440.869 357.977C433.122 357.977 426.807 355.6 421.924 350.848C417.074 346.095 414.648 339.764 414.648 331.854V330.486C414.648 325.18 415.674 320.444 417.725 316.277C419.775 312.078 422.673 308.855 426.416 306.609C430.192 304.331 434.489 303.191 439.307 303.191C446.533 303.191 452.214 305.47 456.348 310.027C460.514 314.585 462.598 321.046 462.598 329.412V335.174H428.955C429.411 338.624 430.778 341.391 433.057 343.475C435.368 345.558 438.281 346.6 441.797 346.6C447.233 346.6 451.481 344.63 454.541 340.691L461.475 348.455C459.359 351.45 456.494 353.794 452.881 355.486C449.268 357.146 445.264 357.977 440.869 357.977ZM439.258 314.617C436.458 314.617 434.18 315.561 432.422 317.449C430.697 319.337 429.59 322.039 429.102 325.555H448.73V324.432C448.665 321.307 447.819 318.898 446.191 317.205C444.564 315.48 442.253 314.617 439.258 314.617ZM494.971 357.977C487.223 357.977 480.908 355.6 476.025 350.848C471.175 346.095 468.75 339.764 468.75 331.854V330.486C468.75 325.18 469.775 320.444 471.826 316.277C473.877 312.078 476.774 308.855 480.518 306.609C484.294 304.331 488.59 303.191 493.408 303.191C500.635 303.191 506.315 305.47 510.449 310.027C514.616 314.585 516.699 321.046 516.699 329.412V335.174H483.057C483.512 338.624 484.88 341.391 487.158 343.475C489.469 345.558 492.383 346.6 495.898 346.6C501.335 346.6 505.583 344.63 508.643 340.691L515.576 348.455C513.46 351.45 510.596 353.794 506.982 355.486C503.369 357.146 499.365 357.977 494.971 357.977ZM493.359 314.617C490.56 314.617 488.281 315.561 486.523 317.449C484.798 319.337 483.691 322.039 483.203 325.555H502.832V324.432C502.767 321.307 501.921 318.898 500.293 317.205C498.665 315.48 496.354 314.617 493.359 314.617Z" fill="black"/>
</svg>
